<svg width="64" height="64" viewBox="0 0 64 64" fill="none" xmlns="http://www.w3.org/2000/svg">
  <!-- Background modal/popup -->
  <rect x="8" y="12" width="48" height="36" rx="4" fill="#3b82f6" fill-opacity="0.1" stroke="#3b82f6" stroke-width="2"/>
  
  <!-- Inner content area -->
  <rect x="12" y="16" width="40" height="28" rx="2" fill="#ffffff" stroke="#3b82f6" stroke-width="1"/>
  
  <!-- Close button -->
  <circle cx="50" cy="18" r="3" fill="#ef4444"/>
  <path d="M48.5 16.5L51.5 19.5M51.5 16.5L48.5 19.5" stroke="#ffffff" stroke-width="1.5" stroke-linecap="round"/>
  
  <!-- Content lines -->
  <rect x="16" y="20" width="16" height="2" rx="1" fill="#6b7280"/>
  <rect x="16" y="24" width="24" height="2" rx="1" fill="#6b7280"/>
  <rect x="16" y="28" width="20" height="2" rx="1" fill="#6b7280"/>
  
  <!-- Button -->
  <rect x="16" y="36" width="12" height="4" rx="2" fill="#3b82f6"/>
  <rect x="17" y="37" width="10" height="2" rx="1" fill="#ffffff"/>
  
  <!-- Overlay indication -->
  <rect x="4" y="8" width="56" height="48" rx="6" fill="none" stroke="#6b7280" stroke-width="1" stroke-dasharray="4 4" opacity="0.5"/>
  
  <!-- Popup trigger indicator -->
  <circle cx="32" cy="56" r="4" fill="#10b981"/>
  <path d="M30 56L32 58L34 56M32 52V58" stroke="#ffffff" stroke-width="1.5" stroke-linecap="round" stroke-linejoin="round"/>
</svg>
